# xmcd CD database file
#
# Track frame offsets:
#	150
#	11461
#	22797
#	37769
#	54376
#	67693
#	82514
#	96782
#	108452
#	121797
#	134149
#	147563
#	161713
#	171258
#	185832
#	200942
#	213845
#	226971
#	238889
#	251266
#	264345
#	275771
#
# Disc length: 3849 seconds
#
# Revision: 0
# Processed by: cddbd v1.5.2PL0 Copyright (c) Steve Scherf et al.
# Submitted via: CDex 1.51
#
DISCID=2e0f0716
DTITLE=Frank Sinatra, Dean Martin, Sammy Davis Jr.  - Simply Rat Pack 2- Dry In The Studio
DYEAR=2009
DGENRE=Jazz
TTITLE0=Blue Skies - Frank Sinatra
TTITLE1=When You're Smiling - Frank Sinatra
TTITLE2=Embraceable You - Frank Sinatra
TTITLE3=Night And Day - Frank Sinatra
TTITLE4=Bein The Beguine - Frank Sinatra
TTITLE5=Automn In New York - Frank Sinatra
TTITLE6=My Melancholy Baby - Frank Sinatra
TTITLE7=You Do Something To Me - Frank Sinatra
TTITLE8=Someone To Watch Over Me - Frank Sinatra
TTITLE9=All Of You - Sammy Davis Jr. 
TTITLE10=Love Me Or Leave Me - Sammy Davis Jr. 
TTITLE11=My Funny Valentine - Sammy Davis Jr. 
TTITLE12=Somethings Gotta Give - Sammy Davis Jr. 
TTITLE13=New York's My Home - Sammy Davis Jr. 
TTITLE14=That Old Black Magic - Sammy Davis Jr. 
TTITLE15=All Of Me - Dean Martin
TTITLE16=Walking My Baby Back Home - Dean Martin
TTITLE17=Hold Me - Dean Martin
TTITLE18=The Night Is Young (And You're So Beautiful) - Dean Martin
TTITLE19=I Got the Sun In The Morning - Dean Martin
TTITLE20=Oh, Marie - Dean Martin
TTITLE21=Santa Lucia - Dean Martin
EXTD=YEAR: 2009
EXTT0=
EXTT1=
EXTT2=
EXTT3=
EXTT4=
EXTT5=
EXTT6=
EXTT7=
EXTT8=
EXTT9=
EXTT10=
EXTT11=
EXTT12=
EXTT13=
EXTT14=
EXTT15=
EXTT16=
EXTT17=
EXTT18=
EXTT19=
EXTT20=
EXTT21=
PLAYORDER=
